<svg xmlns="http://www.w3.org/2000/svg" viewBox="0 0 1200 630" width="1200" height="630">
  <defs>
    <linearGradient id="bg" x1="0%" y1="0%" x2="100%" y2="100%">
      <stop offset="0%" style="stop-color:#1e1b3c"/>
      <stop offset="100%" style="stop-color:#2d2960"/>
    </linearGradient>
  </defs>

  <!-- Background -->
  <rect width="1200" height="630" fill="url(#bg)"/>

  <!-- Subtle grid lines -->
  <line x1="0" y1="210" x2="1200" y2="210" stroke="#ffffff" stroke-opacity="0.04" stroke-width="1"/>
  <line x1="0" y1="420" x2="1200" y2="420" stroke="#ffffff" stroke-opacity="0.04" stroke-width="1"/>
  <line x1="400" y1="0" x2="400" y2="630" stroke="#ffffff" stroke-opacity="0.04" stroke-width="1"/>
  <line x1="800" y1="0" x2="800" y2="630" stroke="#ffffff" stroke-opacity="0.04" stroke-width="1"/>

  <!-- Bar chart decoration (right side) -->
  <rect x="820" y="320" width="52" height="200" rx="6" fill="#6d61dc" opacity="0.6"/>
  <rect x="892" y="240" width="52" height="280" rx="6" fill="#50c8a0" opacity="0.6"/>
  <rect x="964" y="160" width="52" height="360" rx="6" fill="#dc8250" opacity="0.7"/>
  <rect x="1036" y="200" width="52" height="320" rx="6" fill="#6d61dc" opacity="0.4"/>
  <rect x="1108" y="280" width="52" height="240" rx="6" fill="#50c8a0" opacity="0.4"/>

  <!-- Eyebrow -->
  <text x="100" y="220" font-family="system-ui, sans-serif" font-size="22" fill="#a09fdc" letter-spacing="3" font-weight="500">DATA ANALYST · ANALYTICS ENGINEER · EFREI PARIS</text>

  <!-- Name -->
  <text x="96" y="320" font-family="Georgia, serif" font-size="88" fill="#ffffff" font-weight="400">Mathieu</text>
  <text x="96" y="416" font-family="Georgia, serif" font-size="88" fill="#a09fdc" font-style="italic" font-weight="400">Alassoeur.</text>

  <!-- Tagline -->
  <text x="100" y="490" font-family="system-ui, sans-serif" font-size="28" fill="#c8c7e8" font-weight="300">Reliable data systems · Maintainable pipelines · Real execution.</text>

  <!-- URL -->
  <text x="100" y="570" font-family="system-ui, monospace" font-size="20" fill="#6d61dc" opacity="0.8">final-portfolio-eosin-seven.vercel.app</text>

  <!-- Accent dot -->
  <circle cx="72" cy="311" r="8" fill="#6d61dc"/>
  <circle cx="72" cy="407" r="8" fill="#50c8a0"/>
</svg>
